<mxfile host="app.diagrams.net" modified="2020-10-02T00:23:55.625Z" agent="5.0 (Windows NT 10.0; Win64; x64) AppleWebKit/537.36 (KHTML, like Gecko) Chrome/85.0.4183.121 Safari/537.36" etag="uQAr88s-vgcxWd-C3Zat" version="13.7.5" type="github">
  <diagram id="I_ajS0-kxRB85YNs8SZ2" name="Page-1">
    <mxGraphModel dx="868" dy="450" grid="1" gridSize="10" guides="1" tooltips="1" connect="1" arrows="1" fold="1" page="1" pageScale="1" pageWidth="827" pageHeight="1169" math="0" shadow="0">
      <root>
        <mxCell id="0" />
        <mxCell id="1" parent="0" />
        <mxCell id="RhqyOP96oYjDM0pROOzj-3" style="edgeStyle=orthogonalEdgeStyle;rounded=0;orthogonalLoop=1;jettySize=auto;html=1;entryX=0;entryY=0.5;entryDx=0;entryDy=0;" edge="1" parent="1" source="RhqyOP96oYjDM0pROOzj-1" target="RhqyOP96oYjDM0pROOzj-2">
          <mxGeometry relative="1" as="geometry" />
        </mxCell>
        <mxCell id="RhqyOP96oYjDM0pROOzj-5" style="edgeStyle=orthogonalEdgeStyle;rounded=0;orthogonalLoop=1;jettySize=auto;html=1;" edge="1" parent="1" source="RhqyOP96oYjDM0pROOzj-1" target="RhqyOP96oYjDM0pROOzj-4">
          <mxGeometry relative="1" as="geometry" />
        </mxCell>
        <mxCell id="RhqyOP96oYjDM0pROOzj-1" value="Setup" style="rounded=1;whiteSpace=wrap;html=1;" vertex="1" parent="1">
          <mxGeometry x="390" y="80" width="120" height="60" as="geometry" />
        </mxCell>
        <mxCell id="RhqyOP96oYjDM0pROOzj-2" value="1 led y 2 pulsadores" style="rounded=1;whiteSpace=wrap;html=1;" vertex="1" parent="1">
          <mxGeometry x="620" y="80" width="120" height="60" as="geometry" />
        </mxCell>
        <mxCell id="RhqyOP96oYjDM0pROOzj-7" style="edgeStyle=orthogonalEdgeStyle;rounded=0;orthogonalLoop=1;jettySize=auto;html=1;entryX=0.5;entryY=0;entryDx=0;entryDy=0;" edge="1" parent="1" source="RhqyOP96oYjDM0pROOzj-4" target="RhqyOP96oYjDM0pROOzj-6">
          <mxGeometry relative="1" as="geometry" />
        </mxCell>
        <mxCell id="RhqyOP96oYjDM0pROOzj-4" value="loop" style="rounded=1;whiteSpace=wrap;html=1;" vertex="1" parent="1">
          <mxGeometry x="390" y="200" width="120" height="60" as="geometry" />
        </mxCell>
        <mxCell id="RhqyOP96oYjDM0pROOzj-9" style="edgeStyle=orthogonalEdgeStyle;rounded=0;orthogonalLoop=1;jettySize=auto;html=1;entryX=1;entryY=0.5;entryDx=0;entryDy=0;" edge="1" parent="1" source="RhqyOP96oYjDM0pROOzj-6" target="RhqyOP96oYjDM0pROOzj-8">
          <mxGeometry relative="1" as="geometry" />
        </mxCell>
        <mxCell id="RhqyOP96oYjDM0pROOzj-11" style="edgeStyle=orthogonalEdgeStyle;rounded=0;orthogonalLoop=1;jettySize=auto;html=1;entryX=0;entryY=0.5;entryDx=0;entryDy=0;" edge="1" parent="1" source="RhqyOP96oYjDM0pROOzj-6" target="RhqyOP96oYjDM0pROOzj-10">
          <mxGeometry relative="1" as="geometry" />
        </mxCell>
        <mxCell id="RhqyOP96oYjDM0pROOzj-16" style="edgeStyle=orthogonalEdgeStyle;rounded=0;orthogonalLoop=1;jettySize=auto;html=1;entryX=0;entryY=0.5;entryDx=0;entryDy=0;exitX=0.413;exitY=0.95;exitDx=0;exitDy=0;exitPerimeter=0;" edge="1" parent="1" source="RhqyOP96oYjDM0pROOzj-6" target="RhqyOP96oYjDM0pROOzj-4">
          <mxGeometry relative="1" as="geometry">
            <Array as="points">
              <mxPoint x="450" y="386" />
              <mxPoint x="450" y="440" />
              <mxPoint x="370" y="440" />
              <mxPoint x="370" y="230" />
            </Array>
          </mxGeometry>
        </mxCell>
        <mxCell id="RhqyOP96oYjDM0pROOzj-6" value="opciones" style="rhombus;whiteSpace=wrap;html=1;" vertex="1" parent="1">
          <mxGeometry x="410" y="310" width="80" height="80" as="geometry" />
        </mxCell>
        <mxCell id="RhqyOP96oYjDM0pROOzj-14" style="edgeStyle=orthogonalEdgeStyle;rounded=0;orthogonalLoop=1;jettySize=auto;html=1;entryX=0.5;entryY=0;entryDx=0;entryDy=0;" edge="1" parent="1" source="RhqyOP96oYjDM0pROOzj-8" target="RhqyOP96oYjDM0pROOzj-12">
          <mxGeometry relative="1" as="geometry" />
        </mxCell>
        <mxCell id="RhqyOP96oYjDM0pROOzj-8" value="Presionar pulsador 1" style="rounded=1;whiteSpace=wrap;html=1;" vertex="1" parent="1">
          <mxGeometry x="210" y="320" width="120" height="60" as="geometry" />
        </mxCell>
        <mxCell id="RhqyOP96oYjDM0pROOzj-15" style="edgeStyle=orthogonalEdgeStyle;rounded=0;orthogonalLoop=1;jettySize=auto;html=1;entryX=0.5;entryY=0;entryDx=0;entryDy=0;" edge="1" parent="1" source="RhqyOP96oYjDM0pROOzj-10" target="RhqyOP96oYjDM0pROOzj-13">
          <mxGeometry relative="1" as="geometry" />
        </mxCell>
        <mxCell id="RhqyOP96oYjDM0pROOzj-10" value="Presionar pulsador 2" style="rounded=1;whiteSpace=wrap;html=1;" vertex="1" parent="1">
          <mxGeometry x="570" y="320" width="120" height="60" as="geometry" />
        </mxCell>
        <mxCell id="RhqyOP96oYjDM0pROOzj-12" value="Titilar rapido" style="rounded=1;whiteSpace=wrap;html=1;" vertex="1" parent="1">
          <mxGeometry x="210" y="430" width="120" height="60" as="geometry" />
        </mxCell>
        <mxCell id="RhqyOP96oYjDM0pROOzj-13" value="Titilar lento" style="rounded=1;whiteSpace=wrap;html=1;" vertex="1" parent="1">
          <mxGeometry x="570" y="430" width="120" height="60" as="geometry" />
        </mxCell>
      </root>
    </mxGraphModel>
  </diagram>
</mxfile>
